{"title":"UFC 125 Chris Leben vs Brian Stann","uid":6077657,"size":231624704,"categoryP":"video","categoryS":"tv_shows","magnet":"?xt=urn:btih:e05c482f73d56f87e25127a219735d0582e3812a&amp;dn=UFC+125+Chris+Leben+vs+Brian+Stann&amp;tr=udp%3A%2F%2Ftracker.openbittorrent.com%3A80&amp;tr=udp%3A%2F%2Fopen.demonii.com%3A1337&amp;tr=udp%3A%2F%2Ftracker.coppersurfer.tk%3A6969&amp;tr=udp%3A%2F%2Fexodus.desync.com%3A6969","seeders":1,"leechers":0,"uploader":"DibyaTPB","files":1,"time":1293958913,"description":"\nGeneral\nFormat                           : AVI\nFormat/Info                      : Audio Video Interleave\nFile size                        : 221 MiB\nDuration                         : 8mn 14s\nOverall bit rate                 : 3 743 Kbps\nWriting application              : VirtualDubMod 1.5.4.1 (build 2178/release)\nWriting library                  : VirtualDubMod build 2178/release\n\nVideo\nID                               : 0\nFormat                           : MPEG-4 Visual\nFormat profile                   : Advanced Simple@L5\nFormat settings, BVOP            : Yes\nFormat settings, QPel            : No\nFormat settings, GMC             : No warppoints\nFormat settings, Matrix          : Custom\nCodec ID                         : XVID\nCodec ID/Hint                    : XviD\nDuration                         : 8mn 14s\nBit rate                         : 3 639 Kbps\nWidth                            : 512 pixels\nHeight                           : 384 pixels\nDisplay aspect ratio             : 4:3\nFrame rate                       : 29.970 fps\nColor space                      : YUV\nChroma subsampling               : 4:2:0\nBit depth                        : 8 bits\nScan type                        : Progressive\nBits/(Pixel*Frame)               : 0.618\nStream size                      : 215 MiB (97%)\nWriting library                  : XviD 1.2.1 (UTC 2008-12-04)\n\nAudio\nID                               : 1\nFormat                           : MPEG Audio\nFormat version                   : Version 1\nFormat profile                   : Layer 3\nMode                             : Joint stereo\nMode extension                   : MS Stereo\nCodec ID                         : 55\nCodec ID/Hint                    : MP3\nDuration                         : 8mn 14s\nBit rate mode                    : Constant\nBit rate                         : 96.0 Kbps\nChannel(s)                       : 2 channels\nSampling rate                    : 32.0 KHz\nStream size                      : 5.66 MiB (3%)\nAlignment                        : Aligned on interleaves\nInterleave, duration             : 67 ms (2.00 video frames)\nInterleave, preload duration     : 504 ms\nWriting library                  : LAME3.98r\nEncoding settings                : -m j -V 4 -q 2 -lowpass 15.1 -b 96\n\n\nCredits to rok3r!!","torrent":{"xt":"urn:btih:e05c482f73d56f87e25127a219735d0582e3812a","amp;dn":"UFC+125+Chris+Leben+vs+Brian+Stann","amp;tr":["udp%3A%2F%2Ftracker.openbittorrent.com%3A80","udp%3A%2F%2Fopen.demonii.com%3A1337","udp%3A%2F%2Ftracker.coppersurfer.tk%3A6969","udp%3A%2F%2Fexodus.desync.com%3A6969"],"infoHash":"e05c482f73d56f87e25127a219735d0582e3812a","infoHashBuffer":{"type":"Buffer","data":[224,92,72,47,115,213,111,135,226,81,39,162,25,115,93,5,130,227,129,42]},"announce":[],"urlList":[]}}